<?xml version="1.0" encoding="iso-8859-1"?>
<!-- Generator: Adobe Illustrator 19.0.0, SVG Export Plug-In . SVG Version: 6.00 Build 0)  -->
<svg version="1.1" id="Layer_1" xmlns="http://www.w3.org/2000/svg" xmlns:xlink="http://www.w3.org/1999/xlink" x="0px" y="0px"
	 viewBox="0 0 426.667 426.667" style="enable-background:new 0 0 426.667 426.667;" xml:space="preserve">
<g>
	<g>
		<g>
			<path d="M341.333,341.333V384h-256v-42.667H42.667V384c0,23.509,19.136,42.667,42.667,42.667h256
				C364.885,426.667,384,407.509,384,384v-42.667H341.333z"/>
			<path d="M198.251,292.416c4.16,4.16,9.621,6.251,15.083,6.251s10.923-2.091,15.083-6.251l106.667-106.667
				c6.101-6.123,7.915-15.296,4.629-23.253c-3.285-7.957-11.093-13.163-19.712-13.163h-42.667v-128C277.333,9.536,267.797,0,256,0
				h-85.333c-11.797,0-21.333,9.536-21.333,21.333v128h-42.667c-8.619,0-16.405,5.205-19.712,13.163
				c-3.285,7.957-1.472,17.131,4.629,23.253L198.251,292.416z M170.667,192c11.797,0,21.333-9.536,21.333-21.333v-128h42.667v128
				c0,11.797,9.536,21.333,21.333,21.333h12.501l-55.168,55.168L158.165,192H170.667z"/>
		</g>
	</g>
</g>
</svg>
