<?xml version="1.0" encoding="iso-8859-1"?>
<!-- Generator: Adobe Illustrator 19.0.0, SVG Export Plug-In . SVG Version: 6.00 Build 0)  -->
<svg version="1.1" id="Layer_1" xmlns="http://www.w3.org/2000/svg" xmlns:xlink="http://www.w3.org/1999/xlink" x="0px" y="0px"
	 viewBox="0 0 490.667 490.667" style="enable-background:new 0 0 490.667 490.667;" xml:space="preserve">
<g stroke="#f90" fill="#f90">
	<g>
		<g>
			<path d="M106.667,181.334H21.333C9.536,181.334,0,190.891,0,202.667V416c0,11.776,9.536,21.333,21.333,21.333h85.333
				c11.797,0,21.333-9.557,21.333-21.333V202.667C128,190.891,118.464,181.334,106.667,181.334z"/>
			<path d="M485.717,167.659c-4.053-4.843-10.048-7.659-16.384-7.659h-128V74.667c0-11.776-9.536-21.333-21.333-21.333h-64
				c-8.533,0-16.256,5.077-19.605,12.907l-65.728,136.427v202.197l77.419,30.955c2.496,1.003,5.205,1.515,7.915,1.515h170.667
				c10.304,0,19.136-7.381,20.992-17.515l42.667-234.667C491.456,178.923,489.749,172.523,485.717,167.659z"/>
		</g>
	</g>
</g>
</svg>
